<?xml version="1.0" encoding="UTF-8" standalone="no"?>
<!-- Created with Inkscape (http://www.inkscape.org/) -->

<svg
   version="1.1"
   id="svg1"
   width="97.832962"
   height="181.81656"
   viewBox="0 0 97.832962 181.81656"
   sodipodi:docname="logoIA.png"
   xmlns:inkscape="http://www.inkscape.org/namespaces/inkscape"
   xmlns:sodipodi="http://sodipodi.sourceforge.net/DTD/sodipodi-0.dtd"
   xmlns="http://www.w3.org/2000/svg"
   xmlns:svg="http://www.w3.org/2000/svg">
  <defs
     id="defs1" />
  <sodipodi:namedview
     id="namedview1"
     pagecolor="#ffffff"
     bordercolor="#000000"
     borderopacity="0.25"
     inkscape:showpageshadow="2"
     inkscape:pageopacity="0.0"
     inkscape:pagecheckerboard="0"
     inkscape:deskcolor="#d1d1d1" />
  <g
     inkscape:groupmode="layer"
     inkscape:label="Image"
     id="g1"
     transform="translate(-73.196213,-14.13264)">
    <path
       style="fill:#000000"
       d="m 109.72072,193.98752 c -21.601071,-6.30155 -35.691551,-24.77009 -35.691551,-46.78127 0,-16.78983 11.17289,-34.60272 26.408731,-42.1033 l 6.3143,-3.10851 16.38848,0.3191 c 15.00116,0.29209 16.81175,0.52635 21.38849,2.76733 5.66892,2.77578 14.40739,10.60614 18.47131,16.55177 5.33661,7.80761 7.37163,15.0101 7.34618,26 -0.0267,11.53139 -1.9296,18.06356 -7.86859,27.01102 -6.67287,10.0531 -15.71726,16.2383 -28.52727,19.50899 -9.56387,2.44187 -15.43059,2.40189 -24.23008,-0.16513 z m 21.84835,-9.40688 c 11.55923,-3.01001 20.82301,-10.68013 25.81086,-21.37058 2.71582,-5.82082 3.06732,-7.61269 3.05574,-15.57742 -0.0117,-8.05031 -0.34931,-9.69869 -3.19944,-15.62128 -3.97639,-8.26297 -10.72376,-14.98914 -19.20706,-19.14672 -5.83543,-2.85988 -7.42019,-3.18649 -15.5,-3.19445 -8.36458,-0.008 -9.54082,0.25447 -16.65998,3.72107 -8.807921,4.28892 -14.693351,10.19334 -18.681091,18.74138 -2.21669,4.75164 -2.56581,6.86066 -2.56581,15.5 0,8.63934 0.34912,10.74836 2.56581,15.5 5.05443,10.83456 13.975221,18.19844 25.945701,21.41748 7.08512,1.9053 11.20939,1.91213 18.43527,0.0305 z M 116.6511,166.69146 c -5.10747,-5.11215 -9.4433,-14.55638 -10.25703,-22.34166 -0.74278,-7.10659 -0.53387,-7.24694 6.12697,-4.11598 7.24744,3.4067 8.63208,6.66983 8.29273,19.54306 l -0.2846,10.7962 z m 7.37807,-7.76897 c 0,-13.07001 0.89729,-15.16632 8.05468,-18.81775 6.62979,-3.38226 7.33038,-2.9303 6.58041,4.24506 -0.95421,9.12936 -5.72671,18.42159 -12.42288,24.18783 l -2.21221,1.90499 z m 19,-20.78985 c 0,-0.55 0.45,-1 1,-1 0.55,0 1,0.45 1,1 0,0.55 -0.45,1 -1,1 -0.55,0 -1,-0.45 -1,-1 z m -2,-9.39301 c 0,-1.94337 2.63342,-2.75361 3.91821,-1.20554 1.27596,1.53745 0.42461,2.59855 -2.08488,2.59855 -1.00833,0 -1.83333,-0.62686 -1.83333,-1.39301 z M 105.70506,96.73041 c -0.29595,-0.77123 -0.2691,-1.67123 0.0597,-2 0.32876,-0.32878 7.94776,-0.59777 16.93109,-0.59777 15.66667,0 16.33334,0.0816 16.33334,2 0,1.91866 -0.66667,2 -16.39302,2 -13.1411,0 -16.49975,-0.27816 -16.93109,-1.40223 z m 2.905,-9.902825 c -5.46927,-7.170577 -9.580891,-20.214896 -9.580891,-30.3958 v -6.280658 l 5.245281,3.227455 c 8.39627,5.166276 14.86508,12.000617 21.37136,22.578968 0.10992,0.178701 1.99746,-0.864696 4.19455,-2.318659 4.44448,-2.941218 12.03428,-5.506251 16.29271,-5.506251 h 2.78604 l -2.43221,5.499654 c -5.69823,12.884718 -10.03272,16.868294 -17.7414,16.305097 l -4.17124,-0.304751 6.84858,-7.25 c 3.76672,-3.9875 6.38448,-7.25 5.81725,-7.25 -1.39747,0 -10.85549,7.542455 -11.98183,9.555115 -0.75086,1.341712 -1.56882,0.800619 -4.86952,-3.221264 -2.18188,-2.658618 -5.6687,-7.196351 -7.74849,-10.083851 -2.07978,-2.8875 -3.99842,-5.25 -4.26364,-5.25 -1.88334,0 7.52777,15.767116 11.62349,19.473694 3.56325,3.224699 2.57977,4.526306 -3.42004,4.526306 -4.99118,0 -5.66096,-0.277752 -7.97,-3.305055 z M 75.709169,38.43868 c -1.54582,-3.579842 -2.6687,-6.599379 -2.49529,-6.710082 4.44679,-2.838832 5.94368,-3.48392 7.07599,-3.049413 0.75102,0.288194 2.19434,-0.391881 3.20738,-1.511278 3.31692,-3.665151 5.88372,-1.984512 8.91864,5.839553 2.49782,6.439434 1.12579,6.262294 -1.95902,-0.252925 -1.86757,-3.944354 -3.23306,-5.621895 -4.57616,-5.621895 -2.99819,0 -3.33866,2.786542 -1.01305,8.29111 1.17675,2.785298 1.85788,5.321738 1.51362,5.636534 -0.34426,0.314796 -0.80894,0.122356 -1.03263,-0.427644 -3.78932,-9.31696 -7.17296,-12.510816 -9.21397,-8.697155 -0.7733,1.444922 -0.56728,2.829979 0.82801,5.566758 2.64958,5.19701 3.07393,6.507756 2.26809,7.005794 -0.39107,0.241696 -1.9758,-2.489515 -3.52161,-6.069357 z m 85.812031,4.681068 c -0.38318,-0.619995 -1.50239,-1.433228 -2.48713,-1.807186 -1.60929,-0.611135 -1.30057,-1.641029 3.05154,-10.179922 2.66308,-5.225 4.85793,-8.6 4.87745,-7.5 0.0195,1.1 -0.38143,2.659161 -0.89098,3.464803 -0.7012,1.108655 -0.21121,1.765546 2.01531,2.701726 2.29521,0.965062 2.94178,1.874394 2.94178,4.137314 0,5.765048 -7.27682,12.793352 -9.50797,9.183265 z m 5.88079,-3.237108 c 2.48936,-3.947398 2.80596,-6.428355 1.04505,-8.189271 -2.33185,-2.331843 -3.56516,-1.606748 -6.41787,3.773222 -2.15893,4.071537 -2.29536,4.845798 -1,5.675102 2.48578,1.591436 4.87258,1.119886 6.37282,-1.259053 z M 115.5868,39.225899 c -0.30822,-0.498708 0.27314,-0.688767 1.29191,-0.422353 2.03201,0.531382 5.45347,-2.261877 4.87955,-3.983637 -0.19811,-0.594323 -1.90563,-1.104591 -3.79448,-1.133928 -3.09985,-0.04815 -3.57067,-0.447759 -4.83478,-4.103539 -1.20282,-3.478545 -1.20112,-4.466539 0.0121,-7 1.21374,-2.534572 2.00911,-2.970138 5.65033,-3.094265 l 4.23775,-0.144464 v 9.35928 c 0,8.229789 -0.23343,9.484207 -1.93426,10.394463 -2.38594,1.276915 -4.76404,1.332369 -5.50811,0.128443 z m 3.86058,-6.700248 c 1.17181,-0.449667 1.58179,-2.00477 1.58179,-6 0,-2.966156 -0.1882,-5.393011 -0.41822,-5.393011 -0.23001,0 -1.07199,-0.25088 -1.87106,-0.55751 -3.92968,-1.507962 -6.37141,7.064993 -3.05574,10.728769 1.89037,2.088827 1.68089,2.02082 3.76323,1.221752 z m 26.15321,4.03556 c -1.82728,-1.827281 -2.01256,-5.138106 -0.50886,-9.093119 1.89373,-4.980888 6.81557,-5.977268 9.4752,-1.918163 1.30157,1.986451 1.38874,3.141928 0.48909,6.482994 -1.52996,5.68182 -6.10897,7.874748 -9.45543,4.528288 z m 5.81786,-0.960717 c 4.31107,-4.311061 2.43592,-13.050226 -2.26081,-10.53661 -3.30792,1.770343 -4.63658,9.495742 -1.92857,11.213466 1.83318,1.162804 2.44926,1.063267 4.18938,-0.676856 z M 99.067939,34.205082 c -1.40315,-2.621806 -0.36188,-4.853999 3.099201,-6.643791 2.45114,-1.267535 2.73414,-1.7991 1.84364,-3.463015 -1.24552,-2.327269 -3.80656,-2.585389 -4.619991,-0.465636 -0.31658,0.825 -0.99329,1.5 -1.5038,1.5 -0.52353,0 -0.46155,-0.871927 0.14218,-2 0.67972,-1.270081 2.093821,-2 3.874661,-2 3.24395,0 4.84281,2.659575 5.80085,9.649277 0.50584,3.690483 0.35596,4.300032 -0.93543,3.804477 -0.84578,-0.324556 -1.83486,-0.109423 -2.19795,0.478072 -1.07399,1.737751 -4.3906,1.219842 -5.503361,-0.859384 z m 5.761231,-0.272442 c 2.97044,-2.970447 -0.1203,-7.438923 -3.31274,-4.789431 -1.810821,1.502848 -1.950361,4.6359 -0.23726,5.32715 1.95547,0.789052 2.27102,0.741256 3.55,-0.537719 z m 28.95297,0.389812 c -4.60302,-0.381049 -6.1624,-2.806942 -5.25537,-8.175618 0.88081,-5.213462 3.68095,-7.7095 6.96842,-6.211629 2.31039,1.052684 2.49687,0.912171 3.10723,-2.341336 0.35713,-1.903676 1.038,-3.461229 1.51304,-3.461229 0.47504,0 0.62542,1.2375 0.33419,2.75 -0.29123,1.5125 -1.06748,6.125 -1.725,10.25 l -1.19548,7.5 z m 2.80165,-3.551439 c 1.09706,-4.371021 0.10789,-9.091159 -1.98853,-9.488924 -2.6107,-0.495344 -4.56609,2.448818 -4.56609,6.875014 0,4.262081 0.52304,4.975537 3.64761,4.975537 1.59842,0 2.49763,-0.730509 2.90701,-2.361627 z"
       id="path3"
       inkscape:export-filename=".\path3.svg"
       inkscape:export-xdpi="96"
       inkscape:export-ydpi="96" />
  </g>
</svg>
